<svg version="1.0" xmlns="http://www.w3.org/2000/svg" width="1706.667" height="853.333" viewBox="0 0 1280 640"><path d="M109.5 231.9c-20.2 3.6-47.6 17.8-59.6 30.9-7.3 8-14.2 18.8-18.1 28.5-3.1 7.9-3.3 8.7-3.2 21.7 0 12 .3 14.3 2.7 21.3 8.3 23.9 21.6 40.5 42.5 53 14.9 9 29.2 14 51.1 17.9 11.2 2 15.7 2.3 39.6 2.2l27-.1 13.5-3.6c7.4-2 16.2-4.4 19.5-5.3l6.1-1.7 3.9 2.6c6.6 4.4 16.1 7.7 26.3 9.2 12.9 2 33.7 1.9 41.2 0 5.4-1.4 6.5-1.4 14.2.4 15.8 3.7 23.4 4.4 37.6 3.8 28-1.2 57.7-11.6 77.8-27.3 3.2-2.4 6.5-4.4 7.5-4.4.9 0 5.7 1.8 10.6 4.1 34.9 16.1 57.4 21.9 84.6 21.9 21.3 0 36.9-3.8 51.7-12.6 18.5-11 29.8-25.1 36-45 3-9.8 3.2-27.4.3-36-6.9-20.1-20.9-38-39.1-49.8-15.2-9.9-30.8-15.4-51.9-18.1-29.9-3.9-57.1-1.2-86 8.4-20.6 6.9-28.4 10.4-45.7 20.5l-14.9 8.8-4.1-1.5c-27.3-10.1-55.8-10.2-78.9-.2-12.5 5.4-28.2 17.9-33.7 26.7-1.8 2.8-3.7 4.8-4.8 4.8-2.5 0-15.2 6.2-22 10.9-6.5 4.4-14.8 13-19.9 20.7-6.4 9.7-7.8 25.1-3.2 35 1.2 2.5 1.9 4.7 1.6 5-1.2 1.2-17.8 5.4-30.7 7.9-27.2 5-41.5 5.6-60.6 2.5-17.8-2.9-32.9-8.9-49.9-19.7-22.6-14.4-38.3-40.5-38.8-64.3-.2-9.7 2-16.7 8.1-26.1 12.5-19 32.1-32.3 58.2-39.5 9.6-2.7 11.9-2.9 27-2.9 17.5 0 23.8 1 40.5 6.2 17.8 5.6 28.6 13.4 37.5 27 7.9 11.9 8.7 25.7 2.2 36-3.1 5-14.8 15-21 18.2-14.7 7.5-31.8 10.8-49.6 9.8-21.6-1.3-39.7-10.1-45.5-22.1-2.7-5.4-2.7-13.6-.2-19.3 3.5-7.6 14.7-14.1 29.1-16.9 9-1.7 9.9-1.7 19.4-.1 10.4 1.8 18.2 5.2 23.9 10.5 3.1 3 3.3 4.2 1.2 8.2-3 5.8-14.4 10-27.2 10h-5.4l.3 3.2.3 3.3h12c14.7-.1 20.8-1.9 27-7.9 6.7-6.5 7.2-14.5 1.5-22.5-5.6-7.7-18-13.6-34-16.1-31.6-4.9-59.6 10.4-61.7 33.8-1.4 15 9.2 31.9 26.1 41.6 4.5 2.7 19.9 8 25.8 9 6.8 1.2 22.2.8 32-.8 17.9-2.9 32.5-9.9 44.9-21.4 13.5-12.6 16.9-19.9 16.9-36.6-.1-15.8-6.6-29.6-19.8-41.6-11.1-10.2-31.2-19.1-50.6-22.5-12.1-2.1-36.1-1.9-49.1.4zm424.6 28.7c20.5 2.5 42.1 11.4 53.9 22.2 6.6 5.9 14.4 15.8 16.7 21.1 5.1 12 7.5 20.8 7.5 28.1.1 22.6-14.1 44.4-35.2 54.2-20.2 9.5-37.2 12.2-59.1 9.4-16.2-2-23.3-4.1-45.2-13.4-9.2-4-17.2-7.2-17.7-7.2-.6 0-1-.6-1-1.4 0-.8 3.9-3.5 8.8-6.1 4.8-2.6 12.8-7.2 17.8-10.2l9.1-5.4 6.9 3.2c19.6 8.8 44.2 10.1 58.8 2.9 9.6-4.7 16.6-15 16.6-24.7 0-17.9-17.7-34.5-44.5-41.6-6.6-1.8-10.7-2.1-23.5-2.1-23.1.1-35.5 3.2-58.2 14.4l-10.7 5.2-3.3-2.3c-1.8-1.3-7.7-4.6-13.1-7.4-5.5-2.8-9.9-5.5-10-6 0-.6 1.7-1.7 3.9-2.5s7.5-3.6 11.9-6.1c23-13.3 47.2-22.1 71.3-25.9 6.9-1 22.5-.4 38.3 1.6zm-177.6 26.5c3.3.6 7.5 1.7 9.4 2.5 2.7 1.1 3.1 1.7 2.2 2.8-.7.8-8 6.3-16.3 12.1l-15.1 10.7-7.8-2.1c-7.3-2-16.5-3.2-37.1-4.7-4.3-.3-7.8-.9-7.8-1.3 0-1 14.2-10.2 20.5-13.4 15.1-7.4 33.7-9.8 52-6.6zm53.6 19.5c6 3.1 11.6 6.5 12.5 7.5 1.5 1.7 1.3 2-3.2 5.1-2.6 1.8-9.1 6.6-14.4 10.6l-9.7 7.2-8.4-3.9c-4.6-2.1-11.2-4.9-14.7-6.1-4.4-1.6-6.2-2.8-6-3.8.3-1.8 29.5-22.2 31.6-22.2.8 0 6.3 2.5 12.3 5.6zm122.9-1c8.3 2.6 17.8 7.8 22.8 12.7 3.9 3.8 6.8 11.9 5.8 16.8-.8 4.4-5.7 10.4-10.4 12.8-4.7 2.3-15 4.1-23.3 4-8.1-.1-22.4-3.8-22.4-5.9 0-.9 3.4-2.6 9.5-4.7 7.4-2.5 11.2-3.2 17.2-3.3 7.2 0 7.9-.2 9.4-2.5 1.6-2.4 1.6-2.7-.2-4-3-2.3-8.3-3.5-15.4-3.5-7.3 0-26.1 3.7-35.9 7-3.5 1.1-7 1.9-7.7 1.6-.8-.3-5.8-3.1-11.1-6.3-5.3-3.2-11.2-6.7-13.1-7.8-1.9-1.1-3.4-2.5-3.4-3 0-1.4 24.8-11.3 34.1-13.6 17-4.3 31.1-4.4 44.1-.3zm-227 14.9c14.6 2.1 16.2 2.5 15.8 4.1-.3 1.3-46.3 34.4-47.9 34.4-1.2 0-2-4.3-2.6-15-.4-8.2-.2-11.9 1.1-16.2l1.6-5.7 5.3-1c11.7-2.3 14-2.4 26.7-.6zm145.7 10.7c4.4 2.9 10.2 6.5 12.7 8s4.6 3.2 4.6 3.7c0 1.4-29.2 22.2-30.5 21.8-.5-.3-6.3-3.9-12.8-8.1-7.3-4.8-11.7-8.3-11.5-9.2.2-1 28.1-21.4 29.3-21.4.1 0 3.8 2.4 8.2 5.2zm-193.2 8c0 13.1.5 15.5 4.2 19.8 2.6 3.2 2.6 3.3.8 4.6-1.1.8-8.6 4.8-16.8 9-16.3 8.2-16.6 8.2-18.8 1.7-4.1-12.6 5.5-31.7 21.3-42.2 9.2-6.2 9.3-6.1 9.3 7.1zm105.8-2.6c6.2 2.5 13.3 5.3 16 6 2.7.9 4.7 2.1 4.7 2.9 0 .7-11.7 9.4-25.9 19.2-27.8 19.1-46.8 29.8-51 28.8-5.1-1.3-26.5-17-25.5-18.7.3-.5 5.4-3.3 11.2-6.3 5.9-2.9 21.1-12.3 33.7-20.9 12.7-8.5 23.6-15.5 24.3-15.5.7-.1 6.4 2 12.5 4.5zm51.4 26.6c7.9 4 14.3 7.8 14.3 8.5 0 1.2-5 4-28.6 16.4-17.5 9.2-38.5 14.1-55.9 13.2-8.5-.5-11.5-1.1-11.5-2.2 0-.5 4.7-3.5 10.5-6.6 10.7-5.7 29.1-17.6 46.4-29.8 5.1-3.7 9.6-6.7 10-6.7.3 0 7 3.2 14.8 7.2zm-138.5 23.1c2.9 2.9 7.1 6.6 9.3 8.4 2.2 1.7 3.6 3.4 3.2 3.9-1.4 1.4-13.9 1.7-22.2.4-8.8-1.3-19.6-4.9-20.2-6.6-.3-1 20.6-11.1 23.4-11.3.7-.1 3.6 2.3 6.5 5.2zM1117 231.5c-18.1 3-39.5 12.6-50.2 22.4-13.5 12.4-19.8 26-19.8 42.8 0 15.7 3.5 23 17.1 35.6 13.6 12.7 29 19.4 50.4 22 15.2 1.9 27 .8 39.9-3.7 11.8-4.1 18.3-8.4 27-17.6 8.2-8.8 11-15.3 11-26.5.1-11-3-17.3-12.2-25-14.3-11.9-35.9-15.4-58.6-9.6-10.5 2.8-16.2 5.7-21.7 11.2-8.6 8.4-9.1 18.1-1.4 25.5 6.2 6 12.3 7.8 27 7.9h12l.3-3.3.3-3.2h-6c-7.7 0-15.6-1.7-20.4-4.3-3.9-2.2-7.7-7.1-7.7-10 0-4.6 13.7-12.2 25.9-14.4 8.6-1.5 9.8-1.5 18.9.1 21.2 3.7 32.2 12.8 32.5 26.9.3 16.4-20.6 29.8-49 31.4-23.8 1.3-45-5.1-60.3-18.2-8.3-7.1-11.5-12-12.8-19.5-2.3-12.8 1.6-23.3 13.6-36.1 9.4-10 22.2-16.1 45.7-21.5 6.2-1.5 11.8-1.9 25-1.9 16.6.1 17.3.2 29.2 3.8 20.6 6.2 33.7 14 46.9 28 12.5 13.3 18.1 26.1 16.8 38.7-3 29.9-21.2 54.3-52.4 70-23.3 11.7-47.7 16-74.5 13-17.3-2-51-9.1-53.2-11.4-.3-.3.4-2.5 1.5-4.9 4.3-9.2 3.7-23.5-1.5-32.5-8.2-14.4-28.7-30.8-42.1-33.7-2.4-.5-4-1.8-5.9-4.8-1.4-2.3-5.1-6.6-8.2-9.5-13.2-12.5-26-19.4-43.1-23.3-8.2-1.8-11.4-2-23.5-1.5-15.2.6-22.9 2-34.9 6.1l-7.8 2.7-8.1-5c-16.5-10-22.5-13.1-32.4-17.1-30.5-12.1-55.7-17.6-80.3-17.4-25.7.3-49.4 5-66.2 13.3-23.5 11.5-41.8 32.2-50.1 56.4-2.9 8.6-2.7 26.2.3 36 6.2 19.9 17.5 34 36 45 14.8 8.8 30.4 12.6 51.6 12.6 24.8 0 46.1-5.1 75.6-18 10.1-4.4 19.1-8 19.9-8 .9 0 4.1 2 7.3 4.4 13 10.2 29.9 18.1 49.1 23 24 6.2 43.4 6.2 67.6.1 6-1.5 7-1.5 12.6-.1 7.8 2 28.4 2.1 41.5.1 10.2-1.5 19.7-4.8 26.3-9.2 3.6-2.4 4.2-2.5 8-1.4 2.2.6 11 3 19.5 5.3l15.5 4.2h27c24.1.1 28.4-.2 40-2.2 21.3-3.9 35.9-9.1 51.2-18.3 20.6-12.5 33.8-28.9 42-52.6 2.4-6.9 2.7-9.3 2.7-21.3.1-13 0-13.8-3.2-21.8-4.3-10.6-11.8-22-20.2-30.2-12.7-12.7-38.7-25.8-58-29.1-12.4-2.2-37.4-2.4-49-.4zM779.5 259c24 3.5 50.2 13 73 26.4 4.1 2.5 9.4 5.1 11.6 5.7 2.2.7 3.8 1.7 3.6 2.2-.1.5-4.9 3.4-10.6 6.3-5.6 3-11.6 6.3-13.3 7.5l-3 2.2-9.5-4.7c-21.5-10.6-33.8-14.1-54.3-15.2-14.8-.8-26.8 1-38.9 5.6-25.9 10-39.7 31-31.9 48.2 2.9 6.2 8.4 11.9 14.4 14.8 5.1 2.5 17.7 5 25.2 5 8.3 0 23.1-3.4 32.3-7.4l8-3.5 15.7 8.9c8.6 4.9 17 9.6 18.6 10.5 1.6.8 2.6 1.8 2.3 2.2-1.1 1-30.9 13.4-39.7 16.4-22.3 7.8-49.2 8.6-68.9 2.3-14.8-4.9-23.5-9.8-32.1-18.4-16.5-16.5-22.1-37.2-15.6-57 4.7-14.1 9.1-21.5 18.6-31 17.8-17.9 42.7-26.2 83.5-27.8 2.2-.1 7.2.3 11 .8zM947 286.6c7.7.8 17.5 3.6 24.5 7.1 6.4 3.2 20.5 12.4 20.5 13.4 0 .4-3.9 1-8.7 1.3-17.7 1.2-28.2 2.6-36 4.7l-8.1 2.2-16.1-11.4c-8.9-6.3-16.1-11.9-16.1-12.5 0-2.5 22.8-6.8 31-5.8 1.4.2 5.4.6 9 1zm-52.5 24.8c8.3 5.7 15.1 11 15.3 11.8.2 1-1.7 2.2-6 3.8-3.5 1.2-10.1 4-14.7 6.1l-8.4 3.9-9.7-7.2c-5.3-4-11.8-8.8-14.5-10.6l-4.8-3.4 2-2c2.4-2.3 22.1-12.7 24.3-12.8.9 0 8.3 4.7 16.5 10.4zm-112-6.4c12.1 2.5 38.5 12.4 39.2 14.7.2.6-.6 1.5-1.9 1.9-1.3.3-4.1 1.9-6.3 3.4-2.2 1.4-7.8 4.8-12.4 7.4l-8.4 4.8-8.6-2.6c-24-7.4-42.4-8.5-49.5-3.1-1.8 1.3-1.8 1.6-.2 4 1.5 2.3 2.2 2.5 9.4 2.5 6 .1 9.8.8 17.2 3.3 5.9 2.1 9.5 3.8 9.5 4.7 0 2.2-14.7 5.8-23.5 5.9-8.4 0-17.9-1.7-22.7-4.2-4.3-2.3-9.2-8.4-9.9-12.6-1.1-5.8 1.9-13.4 7.4-18.1 7.9-7 20.3-12.2 34.2-14.4 4.3-.7 17.1.5 26.5 2.4zm214.3 16.1 5.2 1.1 1.6 5.6c1.3 4.4 1.5 8.1 1.1 16.7-.6 12.3-1.2 14.9-3.5 14-3.5-1.3-47.2-32.9-47.2-34.1 0-1.4 1-1.6 15-3.9 9-1.5 19.3-1.3 27.8.6zM848 336.7c7.7 5.4 14 10.3 14 10.9 0 1-21.2 15.8-24.5 17-1.5.6-30.7-20.5-30.2-21.9.2-.6 5-4 10.8-7.5 5.7-3.5 11.1-7 11.9-7.8.8-.8 2-1.2 2.8-.9.7.2 7.6 4.8 15.2 10.2zm176.6-6c12.3 6.8 23 22 24.1 34.1.7 8-1.9 15.6-5.1 14.6-2.8-.9-28.6-13.9-31.1-15.8-2-1.4-2-1.4.1-3.8 4.2-4.6 4.9-7 5.1-19.3.1-6.6.3-12.1.3-12.3.1-.7 2.3.1 6.6 2.5zM949 348c13.2 8.8 28.7 18.3 34.5 21.2 5.8 2.9 10.4 5.6 10.3 6-.6 1.7-15.8 13-21.5 16l-6.2 3.3-11.8-6.1c-13-6.7-63.3-40.8-63.3-42.9 0-.7 2.8-2.2 6.3-3.4 3.4-1.1 10.5-3.8 15.7-6 5.2-2.2 10.1-4.1 10.8-4.1.7 0 12 7.2 25.2 16zm-65.4 13.7c16.5 11.8 37.3 25.3 47.7 30.8 5.9 3.1 10.7 6.1 10.7 6.5 0 1.4-5.5 2.1-16.7 2.2-17.7 0-34.8-4.5-51.8-13.6-5.5-2.9-13.9-7.4-18.7-10-4.9-2.6-8.8-5.2-8.8-5.9 0-1.1 26.2-15.4 28.6-15.6.6-.1 4.7 2.5 9 5.6zm133.9 24.5c5.5 2.5 10.1 5.1 10.3 6 .3 1.8-8.8 5-19.2 6.9-7.1 1.2-20.9.9-22.3-.5-.4-.4 1.2-2.4 3.7-4.4 2.5-2 6.5-5.8 9-8.5 3.2-3.4 5.1-4.7 6.5-4.3 1.1.2 6.5 2.4 12 4.8z"/></svg>