<svg xmlns="http://www.w3.org/2000/svg" width="800" height="800" viewBox="0 0 32 32" xml:space="preserve"><path d="M0 0v32h32V0H0zm23.754 12.022c.008.172.012.345.012.519 0 5.285-4.021 11.383-11.383 11.383-2.26 0-4.361-.66-6.133-1.797.314.035.632.055.955.055a8.023 8.023 0 0 0 4.968-1.712 4.002 4.002 0 0 1-3.736-2.776c.244.047.494.07.752.07.365 0 .719-.049 1.054-.143a4.003 4.003 0 0 1-3.209-3.922v-.05c.541.3 1.157.479 1.813.5a4 4 0 0 1-1.779-3.332c0-.731.197-1.42.542-2.01a11.35 11.35 0 0 0 8.245 4.18 4 4 0 0 1 6.817-3.647 8.074 8.074 0 0 0 2.541-.971 4.015 4.015 0 0 1-1.759 2.213 8.03 8.03 0 0 0 2.297-.629 8.101 8.101 0 0 1-1.997 2.069z"/></svg>