<svg xmlns="http://www.w3.org/2000/svg" width="256" height="256" xml:space="preserve"><g style="stroke:none;stroke-width:0;stroke-dasharray:none;stroke-linecap:butt;stroke-linejoin:miter;stroke-miterlimit:10;fill:none;fill-rule:nonzero;opacity:1"><path d="M87.935 21.894c.626-2.086 0-3.619-2.977-3.619h-9.846c-2.504 0-3.658 1.324-4.283 2.785 0 0-5.008 12.204-12.101 20.132-2.294 2.295-3.337 3.026-4.59 3.026-.625 0-1.531-.731-1.531-2.816V21.894c0-2.503-.727-3.619-2.813-3.619H34.32c-1.564 0-2.506 1.162-2.506 2.264 0 2.373 3.547 2.921 3.913 9.597v14.499c0 3.179-.574 3.757-1.826 3.757-3.337 0-11.457-12.26-16.273-26.288-.944-2.727-1.89-3.828-4.406-3.828H3.376C.562 18.275 0 19.599 0 21.059c0 2.608 3.337 15.543 15.542 32.65 8.136 11.682 19.599 18.016 30.031 18.016 6.258 0 7.033-1.407 7.033-3.83v-8.829c0-2.814.593-3.375 2.575-3.375 1.46 0 3.963.729 9.805 6.362 6.676 6.676 7.776 9.671 11.532 9.671h9.846c2.812 0 4.219-1.407 3.408-4.182-.889-2.767-4.076-6.781-8.305-11.538-2.295-2.712-5.738-5.633-6.781-7.094-1.461-1.877-1.043-2.711 0-4.381.001.001 11.998-16.898 13.249-22.635" style="stroke:none;stroke-width:1;stroke-dasharray:none;stroke-linecap:butt;stroke-linejoin:miter;stroke-miterlimit:10;fill:#000;fill-rule:evenodd;opacity:1" transform="matrix(2.81 0 0 2.81 1.407 1.407)"/></g></svg>