<svg height="800" width="800" xmlns="http://www.w3.org/2000/svg" viewBox="0 0 512 512" xml:space="preserve"><path d="M256 64c-11.782 0-21.333 9.551-21.333 21.333v21.333c0 11.782 9.551 21.333 21.333 21.333s21.333-9.551 21.333-21.333V85.333C277.333 73.551 267.782 64 256 64zm0 320c-11.782 0-21.333 9.551-21.333 21.333v21.333c0 11.782 9.551 21.333 21.333 21.333s21.333-9.551 21.333-21.333v-21.333c0-11.782-9.551-21.333-21.333-21.333z"/><path d="M256 0C114.618 0 0 114.618 0 256s114.618 256 256 256 256-114.618 256-256S397.382 0 256 0zm0 469.333c-117.818 0-213.333-95.515-213.333-213.333S138.182 42.667 256 42.667 469.333 138.182 469.333 256 373.818 469.333 256 469.333z"/><path d="M426.667 234.667h-21.333C393.551 234.667 384 244.218 384 256s9.551 21.333 21.333 21.333h21.333c11.782 0 21.333-9.551 21.333-21.333s-9.55-21.333-21.332-21.333zM128 256c0-11.782-9.551-21.333-21.333-21.333H85.333C73.551 234.667 64 244.218 64 256s9.551 21.333 21.333 21.333h21.333c11.783 0 21.334-9.551 21.334-21.333zm7.319-90.513c8.331 8.331 21.839 8.331 30.17 0s8.331-21.839 0-30.17l-15.083-15.083c-8.331-8.331-21.839-8.331-30.17 0-8.331 8.331-8.331 21.839 0 30.17l15.083 15.083zm241.362 181.022c-8.331-8.331-21.839-8.331-30.17 0s-8.331 21.839 0 30.17l15.083 15.083c8.331 8.331 21.839 8.331 30.17 0s8.331-21.839 0-30.17l-15.083-15.083zm.002-181.022 15.083-15.083c8.331-8.331 8.331-21.839 0-30.17-8.331-8.331-21.839-8.331-30.17 0l-15.083 15.083c-8.331 8.331-8.331 21.839 0 30.17s21.839 8.331 30.17 0zM135.319 346.509l-15.083 15.083c-8.331 8.331-8.331 21.839 0 30.17 8.331 8.331 21.839 8.331 30.17 0l15.083-15.083c8.331-8.331 8.331-21.839 0-30.17s-21.838-8.332-30.17 0zM256 149.333c-11.782 0-21.333 9.551-21.333 21.333v64H192c-11.782 0-21.333 9.551-21.333 21.333s9.551 21.333 21.333 21.333h64c11.782 0 21.333-9.551 21.333-21.333v-85.333c0-11.781-9.551-21.333-21.333-21.333z"/></svg>